<svg width="14" height="16" viewBox="0 0 14 16" fill="none" xmlns="http://www.w3.org/2000/svg">
<path d="M13.1895 3.00006V13.0001M2.16145 1.26706C2.073 1.19716 1.96665 1.1536 1.85458 1.14136C1.74251 1.12913 1.62926 1.14871 1.52781 1.19787C1.42636 1.24703 1.34081 1.32378 1.28097 1.41932C1.22112 1.51486 1.18941 1.62532 1.18945 1.73806V14.2621C1.1896 14.3747 1.22145 14.485 1.28137 14.5804C1.34128 14.6758 1.42685 14.7524 1.52826 14.8015C1.62968 14.8505 1.74285 14.87 1.85483 14.8577C1.96681 14.8455 2.07307 14.8019 2.16145 14.7321L10.0925 8.47106C10.1636 8.4149 10.2211 8.34334 10.2607 8.26176C10.3002 8.18019 10.3208 8.09071 10.3208 8.00006C10.3208 7.9094 10.3002 7.81993 10.2607 7.73835C10.2211 7.65677 10.1636 7.58522 10.0925 7.52906L2.16145 1.26706Z" stroke="black" stroke-width="1.5" stroke-linecap="round" stroke-linejoin="round"/>
</svg>
