<svg width="14" height="16" viewBox="0 0 14 16" fill="none" xmlns="http://www.w3.org/2000/svg">
<path d="M1 3.00006V13.0001M12.028 1.26706C12.1165 1.19716 12.2228 1.1536 12.3349 1.14136C12.4469 1.12913 12.5602 1.14871 12.6616 1.19787C12.7631 1.24703 12.8486 1.32378 12.9085 1.41932C12.9683 1.51486 13 1.62532 13 1.73806V14.2621C12.9999 14.3747 12.968 14.485 12.9081 14.5804C12.8482 14.6758 12.7626 14.7524 12.6612 14.8015C12.5598 14.8505 12.4466 14.87 12.3346 14.8577C12.2226 14.8455 12.1164 14.8019 12.028 14.7321L4.097 8.47106C4.02584 8.4149 3.96832 8.34334 3.92878 8.26176C3.88924 8.18019 3.8687 8.09071 3.8687 8.00006C3.8687 7.9094 3.88924 7.81993 3.92878 7.73835C3.96832 7.65677 4.02584 7.58522 4.097 7.52906L12.028 1.26706Z" stroke="black" stroke-width="1.5" stroke-linecap="round" stroke-linejoin="round"/>
</svg>
